<?xml version="1.0" encoding="UTF-8"?>
<svg xmlns="http://www.w3.org/2000/svg" xmlns:xlink="http://www.w3.org/1999/xlink" width="100px" height="100px" viewBox="0 0 100 61" version="1.1">
<g id="surface1">
<path style=" stroke:none;fill-rule:nonzero;fill:rgb(0%,0%,0%);fill-opacity:1;" d="M 26.3125 11.589844 C 26.109375 11.871094 26.058594 17.476562 26.082031 33.542969 L 26.160156 55.140625 L 28.6875 55.21875 L 31.1875 55.292969 L 31.132812 33.339844 L 31.058594 11.386719 L 28.839844 11.308594 C 27.191406 11.257812 26.546875 11.335938 26.3125 11.589844 Z M 26.3125 11.589844 "/>
<path style=" stroke:none;fill-rule:nonzero;fill:rgb(0%,0%,0%);fill-opacity:1;" d="M 7.707031 23.285156 C 3.761719 23.949219 1.289062 26.507812 1.289062 29.886719 L 1.289062 31.472656 L 3.738281 31.472656 C 5.851562 31.472656 6.1875 31.421875 6.1875 31.039062 C 6.1875 30.808594 6.441406 30.089844 6.726562 29.476562 C 7.472656 27.941406 8.710938 27.402344 11.339844 27.378906 C 13.582031 27.378906 15.179688 28.019531 16.082031 29.246094 C 16.804688 30.21875 16.828125 32.804688 16.132812 33.828125 C 15.414062 34.902344 14.457031 35.363281 9.277344 37.128906 C 4.871094 38.636719 4.433594 38.839844 3.324219 39.917969 C 1.597656 41.628906 1.210938 42.988281 1.339844 46.902344 C 1.46875 51.125 2.085938 52.324219 4.972656 53.808594 C 6.828125 54.78125 8.710938 55.089844 12.34375 54.960938 C 15.101562 54.859375 15.824219 54.757812 17.113281 54.195312 C 19.097656 53.347656 20.230469 52.429688 20.953125 51.097656 C 21.519531 50.046875 21.519531 49.84375 21.597656 39.660156 C 21.648438 32.238281 21.597656 28.992188 21.367188 28.195312 C 20.722656 25.894531 18.117188 23.871094 15.078125 23.308594 C 13.375 23.003906 9.511719 22.976562 7.707031 23.285156 Z M 16.261719 48.511719 C 15.851562 49.433594 15.515625 49.765625 14.535156 50.203125 C 11.933594 51.328125 7.757812 50.636719 6.855469 48.921875 C 6.261719 47.796875 6.109375 46.3125 6.417969 45.109375 C 6.882812 43.394531 8.171875 42.5 12.140625 41.195312 C 14.019531 40.554688 15.800781 39.863281 16.082031 39.609375 L 16.625 39.199219 L 16.699219 43.269531 C 16.753906 46.902344 16.699219 47.488281 16.261719 48.511719 Z M 16.261719 48.511719 "/>
<path style=" stroke:none;fill-rule:nonzero;fill:rgb(0%,0%,0%);fill-opacity:1;" d="M 35.671875 23.386719 C 35.59375 23.566406 35.566406 29.578125 35.617188 36.742188 C 35.695312 51.25 35.617188 50.585938 37.527344 52.53125 C 38.890625 53.914062 40.800781 54.707031 43.632812 55.039062 C 48.300781 55.625 52.527344 54.578125 54.613281 52.324219 C 56.441406 50.355469 56.367188 51.125 56.261719 32.929688 L 56.1875 23.027344 L 51.3125 23.027344 L 51.238281 35.539062 C 51.160156 47.71875 51.132812 48.078125 50.617188 48.792969 C 49.714844 50.023438 48.117188 50.664062 45.875 50.664062 C 43.480469 50.664062 41.90625 49.972656 41.1875 48.617188 C 40.746094 47.796875 40.722656 46.824219 40.722656 35.386719 L 40.722656 23.027344 L 38.273438 23.027344 C 36.441406 23.027344 35.773438 23.105469 35.671875 23.386719 Z M 35.671875 23.386719 "/>
<path style=" stroke:none;fill-rule:nonzero;fill:rgb(0%,0%,0%);fill-opacity:1;" d="M 67.5 23.285156 C 66.082031 23.539062 63.996094 24.539062 62.785156 25.585938 C 60.953125 27.199219 60.953125 27.199219 60.953125 41.964844 L 60.953125 55.140625 L 65.851562 55.140625 L 65.980469 42.601562 C 66.132812 28.480469 66.03125 29.167969 68.117188 28.09375 C 68.890625 27.710938 69.820312 27.507812 71.3125 27.429688 L 73.402344 27.328125 L 73.941406 25.355469 C 74.253906 24.257812 74.484375 23.308594 74.484375 23.207031 C 74.484375 22.976562 68.996094 23.027344 67.5 23.285156 Z M 67.5 23.285156 "/>
<path style=" stroke:none;fill-rule:nonzero;fill:rgb(0%,0%,0%);fill-opacity:1;" d="M 82.914062 23.308594 C 81.03125 23.589844 78.6875 24.820312 77.757812 26.023438 C 76.90625 27.121094 76.210938 29.324219 76.339844 30.5 L 76.417969 31.34375 L 78.890625 31.421875 L 81.390625 31.496094 L 81.546875 30.601562 C 81.753906 29.476562 82.835938 28.195312 83.941406 27.738281 C 84.40625 27.53125 85.617188 27.378906 86.648438 27.378906 C 88.789062 27.378906 90.308594 27.941406 91.1875 29.015625 C 92.292969 30.449219 92.140625 33.339844 90.875 34.515625 C 90.257812 35.105469 87.785156 36.078125 82.835938 37.714844 C 79.5625 38.789062 78.53125 39.53125 77.449219 41.476562 C 76.699219 42.832031 76.675781 42.933594 76.675781 46.441406 C 76.675781 49.691406 76.726562 50.125 77.269531 51.125 C 77.601562 51.738281 78.375 52.582031 79.019531 53.042969 C 81.109375 54.5 82.292969 54.832031 85.851562 54.960938 C 89.484375 55.089844 91.132812 54.832031 93.144531 53.835938 C 94.898438 52.964844 95.566406 52.324219 96.289062 50.789062 L 96.90625 49.511719 L 96.90625 39.019531 C 96.90625 29.425781 96.855469 28.453125 96.417969 27.507812 C 95.4375 25.355469 93.246094 23.847656 90.335938 23.308594 C 88.609375 22.976562 85.101562 22.976562 82.914062 23.308594 Z M 91.957031 44.394531 C 91.882812 47.234375 91.777344 48.15625 91.417969 48.820312 C 90.027344 51.355469 83.402344 51.40625 82.113281 48.898438 C 81.519531 47.796875 81.339844 46.03125 81.675781 44.980469 C 82.214844 43.320312 83.351562 42.578125 87.398438 41.167969 C 89.433594 40.480469 91.289062 39.710938 91.496094 39.507812 C 91.828125 39.175781 91.882812 39.226562 91.957031 39.96875 C 92.011719 40.429688 92.011719 42.421875 91.957031 44.394531 Z M 91.957031 44.394531 "/>
</g>
</svg>
