<?xml version="1.0" encoding="UTF-8"?>
<svg xmlns="http://www.w3.org/2000/svg" xmlns:xlink="http://www.w3.org/1999/xlink" width="100px" height="100px" viewBox="0 0 100 100" version="1.1">
<g id="surface1">
<path style=" stroke:none;fill-rule:nonzero;fill:rgb(0%,0%,0%);fill-opacity:1;" d="M 0.445312 37.765625 C 0.445312 37.988281 1.734375 39.28125 3.292969 40.660156 C 5.203125 42.304688 6.539062 43.148438 7.296875 43.148438 C 8.40625 43.148438 8.453125 43.28125 8.453125 45.375 C 8.453125 47.0625 8.273438 47.597656 7.785156 47.597656 C 7.296875 47.597656 7.117188 48.132812 7.117188 49.820312 C 7.117188 51.511719 7.296875 52.046875 7.785156 52.046875 C 8.363281 52.046875 8.453125 53.113281 8.453125 59.164062 L 8.453125 66.28125 L 12.898438 66.28125 L 12.898438 52.046875 L 24.464844 52.046875 L 24.464844 66.28125 L 28.914062 66.28125 L 28.914062 59.164062 C 28.914062 53.113281 29.003906 52.046875 29.582031 52.046875 C 30.070312 52.046875 30.25 51.511719 30.25 49.820312 C 30.25 48.132812 30.070312 47.597656 29.582031 47.597656 C 29.09375 47.597656 28.914062 47.0625 28.914062 45.375 C 28.914062 43.238281 28.960938 43.148438 30.160156 43.148438 C 31.003906 43.148438 32.25 42.304688 34.476562 40.257812 L 37.589844 37.410156 L 19.039062 37.367188 C 8.628906 37.367188 0.445312 37.542969 0.445312 37.765625 Z M 24.378906 45.460938 L 24.511719 47.597656 L 12.898438 47.597656 L 12.898438 43.105469 L 18.59375 43.238281 L 24.242188 43.371094 Z M 24.378906 45.460938 "/>
<path style=" stroke:none;fill-rule:nonzero;fill:rgb(0%,0%,0%);fill-opacity:1;" d="M 45.507812 38.746094 C 42.703125 39.546875 41.28125 43.726562 42.972656 46.175781 C 43.816406 47.375 45.863281 48.488281 47.242188 48.488281 C 48.398438 48.488281 50.84375 47.019531 50.445312 46.574219 C 50.265625 46.441406 49.734375 46.574219 49.199219 46.929688 C 47.730469 48 45.90625 47.730469 44.441406 46.308594 C 42.347656 44.21875 42.882812 41.015625 45.550781 39.769531 C 46.929688 39.101562 47.199219 39.101562 48.441406 39.722656 C 49.820312 40.390625 50.757812 40.078125 49.6875 39.28125 C 48.800781 38.523438 47.019531 38.34375 45.507812 38.746094 Z M 45.507812 38.746094 "/>
<path style=" stroke:none;fill-rule:nonzero;fill:rgb(0%,0%,0%);fill-opacity:1;" d="M 54.894531 38.878906 C 52.980469 39.722656 52.046875 41.238281 52.046875 43.417969 C 52.046875 47.109375 55.425781 49.332031 58.851562 47.910156 C 61.476562 46.796875 62.457031 43.996094 61.164062 41.191406 C 60.054688 38.835938 57.296875 37.8125 54.894531 38.878906 Z M 58.898438 40.078125 C 60.585938 41.414062 61.078125 42.925781 60.5 44.75 C 59.476562 47.777344 56.449219 48.53125 54.226562 46.308594 C 50.757812 42.792969 55.070312 37.054688 58.898438 40.078125 Z M 58.898438 40.078125 "/>
<path style=" stroke:none;fill-rule:nonzero;fill:rgb(0%,0%,0%);fill-opacity:1;" d="M 91.191406 38.746094 C 88.210938 39.945312 87.054688 42.660156 88.257812 45.550781 C 89.101562 47.597656 91.371094 48.664062 93.90625 48.265625 C 96.085938 47.910156 96.621094 47.199219 96.441406 44.839844 C 96.308594 42.972656 96.261719 42.925781 94.660156 42.792969 C 93.683594 42.703125 92.972656 42.839844 92.972656 43.105469 C 92.972656 43.371094 93.460938 43.59375 94.082031 43.59375 C 95.0625 43.59375 95.195312 43.773438 95.195312 45.375 C 95.195312 46.886719 95.019531 47.199219 94.082031 47.421875 C 91.238281 48.132812 88.96875 46.351562 88.96875 43.460938 C 88.96875 40.347656 91.726562 38.433594 94.304688 39.722656 C 95.640625 40.4375 96.53125 40.078125 95.507812 39.234375 C 94.617188 38.523438 92.394531 38.257812 91.191406 38.746094 Z M 91.191406 38.746094 "/>
<path style=" stroke:none;fill-rule:nonzero;fill:rgb(0%,0%,0%);fill-opacity:1;" d="M 63.613281 43.371094 L 63.613281 48.042969 L 66.238281 48.042969 C 68.417969 48.042969 69.128906 47.863281 70.195312 46.929688 C 71.886719 45.507812 72.332031 43.726562 71.441406 41.679688 C 70.640625 39.679688 68.773438 38.699219 65.835938 38.699219 L 63.613281 38.699219 Z M 69.617188 40.703125 C 70.375 41.414062 70.730469 42.261719 70.730469 43.371094 C 70.730469 45.730469 69.128906 47.152344 66.503906 47.152344 L 64.5 47.152344 L 64.5 39.589844 L 66.503906 39.589844 C 68.058594 39.589844 68.816406 39.859375 69.617188 40.703125 Z M 69.617188 40.703125 "/>
<path style=" stroke:none;fill-rule:nonzero;fill:rgb(0%,0%,0%);fill-opacity:1;" d="M 73.84375 43.371094 C 73.84375 47.242188 73.976562 48.042969 74.511719 48.042969 C 75.042969 48.042969 75.179688 47.242188 75.179688 43.371094 C 75.179688 39.5 75.042969 38.699219 74.511719 38.699219 C 73.976562 38.699219 73.84375 39.5 73.84375 43.371094 Z M 73.84375 43.371094 "/>
<path style=" stroke:none;fill-rule:nonzero;fill:rgb(0%,0%,0%);fill-opacity:1;" d="M 77.847656 43.371094 C 77.847656 49.019531 78.648438 49.6875 78.824219 44.171875 L 78.960938 40.347656 L 81.628906 44.171875 C 85.230469 49.378906 85.675781 49.289062 85.5 43.371094 C 85.410156 40.792969 85.1875 38.699219 84.964844 38.699219 C 84.742188 38.699219 84.476562 40.4375 84.429688 42.527344 L 84.296875 46.351562 L 81.628906 42.527344 C 80.160156 40.4375 78.691406 38.699219 78.425781 38.699219 C 77.980469 38.699219 77.847656 39.945312 77.847656 43.371094 Z M 77.847656 43.371094 "/>
<path style=" stroke:none;fill-rule:nonzero;fill:rgb(0%,0%,0%);fill-opacity:1;" d="M 42.261719 58.230469 L 42.261719 64.945312 L 46.261719 64.945312 C 50.84375 64.945312 52.3125 64.414062 53.871094 62.1875 C 55.25 60.277344 55.292969 56.628906 54.003906 54.847656 C 52.359375 52.625 50.488281 51.867188 46.175781 51.691406 L 42.261719 51.511719 Z M 50.578125 55.339844 C 51.601562 56.226562 51.824219 56.761719 51.824219 58.453125 C 51.824219 61.164062 50.667969 62.320312 47.640625 62.632812 L 45.375 62.855469 L 45.375 54.269531 L 47.332031 54.269531 C 48.800781 54.269531 49.644531 54.539062 50.578125 55.339844 Z M 50.578125 55.339844 "/>
<path style=" stroke:none;fill-rule:nonzero;fill:rgb(0%,0%,0%);fill-opacity:1;" d="M 60.71875 52.222656 C 56.894531 53.960938 55.292969 58.628906 57.472656 61.789062 C 58.984375 64.011719 60.453125 64.945312 62.945312 65.214844 C 70.683594 66.058594 74.019531 56.09375 67.171875 52.578125 C 64.945312 51.46875 62.722656 51.335938 60.71875 52.222656 Z M 65.835938 54.9375 C 69.882812 57.027344 67.261719 63.480469 62.765625 62.5 C 59.609375 61.832031 58.585938 57.917969 60.898438 55.558594 C 62.367188 54.09375 63.878906 53.914062 65.835938 54.9375 Z M 65.835938 54.9375 "/>
<path style=" stroke:none;fill-rule:nonzero;fill:rgb(0%,0%,0%);fill-opacity:1;" d="M 72.953125 52.9375 C 72.953125 54.226562 73 54.269531 75.179688 54.269531 L 77.402344 54.269531 L 77.402344 58.007812 C 77.402344 62.589844 76.914062 63.300781 74.421875 62.101562 C 72.953125 61.386719 72.820312 61.386719 72.242188 62.144531 C 71.441406 63.210938 71.621094 63.613281 73.441406 64.589844 C 75.488281 65.746094 78.160156 65.390625 79.492188 63.835938 C 80.425781 62.765625 80.515625 62.234375 80.515625 57.117188 L 80.515625 51.601562 L 72.953125 51.601562 Z M 72.953125 52.9375 "/>
<path style=" stroke:none;fill-rule:nonzero;fill:rgb(0%,0%,0%);fill-opacity:1;" d="M 87.1875 52.089844 C 84.742188 53.070312 82.738281 55.871094 82.738281 58.273438 C 82.738281 61.519531 84.832031 64.101562 88.167969 64.992188 C 93.726562 66.503906 98.753906 61.386719 96.753906 56.273438 C 95.953125 54.046875 95.105469 53.246094 92.839844 52.269531 C 91.015625 51.511719 88.835938 51.421875 87.1875 52.089844 Z M 92.304688 54.980469 C 93.773438 55.960938 94.441406 58.140625 93.816406 59.964844 C 92.792969 62.855469 88.65625 63.523438 86.742188 61.078125 C 83.898438 57.429688 88.433594 52.445312 92.304688 54.980469 Z M 92.304688 54.980469 "/>
</g>
</svg>
