<?xml version="1.0" encoding="UTF-8"?>
<svg xmlns="http://www.w3.org/2000/svg" xmlns:xlink="http://www.w3.org/1999/xlink" width="100px" height="100px" viewBox="0 0 100 38" version="1.1">
<g id="surface1">
<path style=" stroke:none;fill-rule:nonzero;fill:rgb(0%,0%,0%);fill-opacity:1;" d="M 83.089844 12.6875 C 82.597656 12.75 82.03125 12.917969 81.589844 13.132812 C 80.125 13.847656 79.152344 15.207031 78.964844 16.804688 C 78.9375 17.0625 78.929688 17.390625 78.941406 19.140625 C 78.949219 21.121094 78.949219 21.183594 78.996094 21.425781 C 79.160156 22.269531 79.480469 22.96875 79.996094 23.597656 C 80.179688 23.820312 80.59375 24.21875 80.816406 24.382812 C 81.457031 24.847656 82.109375 25.121094 82.921875 25.265625 C 83.125 25.300781 83.308594 25.308594 83.992188 25.320312 C 84.910156 25.335938 85.242188 25.3125 85.683594 25.226562 C 87.453125 24.875 88.882812 23.53125 89.324219 21.804688 C 89.464844 21.257812 89.464844 21.222656 89.464844 18.988281 C 89.464844 17.714844 89.457031 16.898438 89.445312 16.78125 C 89.339844 15.964844 89.011719 15.160156 88.519531 14.507812 C 88.347656 14.289062 87.992188 13.921875 87.753906 13.726562 C 87.226562 13.292969 86.601562 12.980469 85.917969 12.804688 C 85.421875 12.679688 85.226562 12.664062 84.171875 12.664062 C 83.65625 12.667969 83.167969 12.675781 83.089844 12.6875 Z M 85.132812 16.039062 C 85.253906 16.097656 85.335938 16.226562 85.339844 16.359375 C 85.34375 16.433594 85.277344 16.695312 85.128906 17.210938 C 85.007812 17.621094 84.667969 18.8125 84.367188 19.859375 C 83.792969 21.871094 83.792969 21.867188 83.640625 21.945312 C 83.539062 21.996094 83.320312 21.980469 83.226562 21.910156 C 83.136719 21.847656 83.066406 21.714844 83.066406 21.609375 C 83.066406 21.5625 83.40625 20.332031 83.824219 18.875 C 84.445312 16.707031 84.59375 16.210938 84.640625 16.148438 C 84.765625 15.996094 84.960938 15.953125 85.132812 16.039062 Z M 85.132812 16.039062 "/>
<path style=" stroke:none;fill-rule:nonzero;fill:rgb(0%,0%,0%);fill-opacity:1;" d="M 59.269531 18.988281 L 59.277344 25.207031 L 62.144531 25.207031 L 62.152344 23.09375 C 62.152344 21.578125 62.164062 20.972656 62.179688 20.953125 C 62.191406 20.9375 62.21875 20.921875 62.234375 20.921875 C 62.25 20.921875 63.117188 21.890625 64.167969 23.070312 L 66.070312 25.21875 L 68.933594 25.21875 L 68.933594 12.773438 L 66.066406 12.773438 L 66.0625 16.128906 L 66.054688 19.488281 L 65.996094 19.609375 C 65.917969 19.777344 65.828125 19.875 65.664062 19.960938 C 65.527344 20.035156 65.511719 20.035156 65.289062 20.035156 C 65.078125 20.035156 65.042969 20.03125 64.945312 19.976562 C 64.824219 19.914062 64.671875 19.765625 64.617188 19.660156 C 64.597656 19.625 64.035156 18.0625 63.367188 16.183594 L 62.148438 12.773438 L 59.265625 12.773438 Z M 59.269531 18.988281 "/>
<path style=" stroke:none;fill-rule:nonzero;fill:rgb(0%,0%,0%);fill-opacity:1;" d="M 74.050781 12.816406 C 73.976562 12.835938 73.859375 12.882812 73.785156 12.917969 C 73.613281 13 73.320312 13.289062 73.230469 13.464844 C 73.179688 13.558594 72.703125 15.1875 71.511719 19.347656 C 70.605469 22.507812 69.859375 25.125 69.851562 25.15625 L 69.839844 25.21875 L 72.5 25.21875 L 73.277344 22.503906 C 73.703125 21.015625 74.066406 19.765625 74.085938 19.730469 C 74.210938 19.511719 74.511719 19.511719 74.675781 19.726562 L 74.722656 19.785156 L 74.730469 22.503906 L 74.734375 25.21875 L 77.398438 25.21875 L 77.398438 19.582031 C 77.398438 14.039062 77.398438 13.9375 77.355469 13.773438 C 77.246094 13.339844 76.925781 12.988281 76.503906 12.835938 C 76.367188 12.785156 76.351562 12.785156 75.277344 12.78125 C 74.289062 12.777344 74.175781 12.78125 74.050781 12.816406 Z M 74.050781 12.816406 "/>
<path style=" stroke:none;fill-rule:nonzero;fill:rgb(0%,0%,0%);fill-opacity:1;" d="M 22.179688 13.714844 L 22.179688 14.527344 L 23.066406 14.527344 L 23.066406 12.90625 L 22.179688 12.90625 Z M 22.179688 13.714844 "/>
<path style=" stroke:none;fill-rule:nonzero;fill:rgb(0%,0%,0%);fill-opacity:1;" d="M 34.644531 13.714844 L 34.644531 14.527344 L 35.535156 14.527344 L 35.535156 12.90625 L 34.644531 12.90625 Z M 34.644531 13.714844 "/>
<path style=" stroke:none;fill-rule:nonzero;fill:rgb(0%,0%,0%);fill-opacity:1;" d="M 51.3125 19.007812 L 51.3125 25.109375 L 52.199219 25.109375 L 52.199219 12.90625 L 51.3125 12.90625 Z M 51.3125 19.007812 "/>
<path style=" stroke:none;fill-rule:nonzero;fill:rgb(0%,0%,0%);fill-opacity:1;" d="M 10.535156 19.3125 L 10.535156 25.109375 L 12.816406 25.101562 C 15.253906 25.09375 15.183594 25.097656 15.699219 24.984375 C 17.875 24.511719 19.382812 22.871094 19.796875 20.527344 C 19.882812 20.046875 19.898438 19.832031 19.898438 19.191406 C 19.898438 18.527344 19.875 18.289062 19.765625 17.757812 C 19.335938 15.660156 17.957031 14.191406 15.945312 13.691406 C 15.796875 13.652344 15.550781 13.605469 15.390625 13.578125 C 15.109375 13.535156 15.019531 13.53125 12.816406 13.523438 L 10.535156 13.515625 Z M 15.066406 14.421875 C 15.882812 14.542969 16.488281 14.769531 17.058594 15.175781 C 17.859375 15.738281 18.441406 16.636719 18.714844 17.734375 C 18.84375 18.265625 18.875 18.546875 18.875 19.246094 C 18.878906 19.921875 18.859375 20.132812 18.765625 20.621094 C 18.402344 22.464844 17.285156 23.703125 15.617188 24.101562 C 15.042969 24.238281 15.035156 24.238281 13.183594 24.246094 L 11.488281 24.257812 L 11.488281 14.371094 L 13.164062 14.378906 C 14.542969 14.386719 14.875 14.394531 15.066406 14.421875 Z M 15.066406 14.421875 "/>
<path style=" stroke:none;fill-rule:nonzero;fill:rgb(0%,0%,0%);fill-opacity:1;" d="M 38.511719 15.535156 L 38.511719 16.828125 L 36.957031 16.828125 L 36.964844 17.625 L 37.738281 17.632812 L 38.507812 17.636719 L 38.519531 20.6875 C 38.527344 24.035156 38.519531 23.863281 38.660156 24.28125 C 38.894531 24.984375 39.523438 25.300781 40.539062 25.21875 C 40.851562 25.195312 41.203125 25.128906 41.261719 25.082031 C 41.300781 25.050781 41.300781 24.339844 41.261719 24.339844 C 41.246094 24.339844 41.152344 24.355469 41.054688 24.371094 C 40.785156 24.417969 40.390625 24.4375 40.203125 24.410156 C 39.796875 24.351562 39.570312 24.117188 39.460938 23.652344 C 39.414062 23.457031 39.414062 23.398438 39.40625 20.546875 L 39.398438 17.636719 L 40.394531 17.632812 L 41.390625 17.625 L 41.398438 16.828125 L 39.398438 16.828125 L 39.398438 14.242188 L 38.511719 14.242188 Z M 38.511719 15.535156 "/>
<path style=" stroke:none;fill-rule:nonzero;fill:rgb(0%,0%,0%);fill-opacity:1;" d="M 28.273438 16.628906 C 27.054688 16.730469 26.054688 17.417969 25.488281 18.546875 C 25.128906 19.265625 24.972656 19.996094 24.972656 20.957031 C 24.96875 21.5 24.996094 21.773438 25.101562 22.234375 C 25.449219 23.78125 26.484375 24.832031 27.890625 25.066406 C 28.128906 25.105469 28.222656 25.113281 28.601562 25.101562 C 29.222656 25.085938 29.609375 25.003906 30.035156 24.804688 C 30.300781 24.675781 30.488281 24.535156 30.703125 24.316406 C 30.890625 24.117188 30.972656 24.007812 31.128906 23.71875 L 31.246094 23.496094 L 31.234375 24.253906 C 31.222656 25.066406 31.195312 25.375 31.097656 25.808594 C 30.828125 26.996094 30.136719 27.625 28.957031 27.761719 C 28.632812 27.796875 28.054688 27.773438 27.765625 27.714844 C 27.195312 27.59375 26.6875 27.285156 26.386719 26.871094 C 26.261719 26.699219 26.125 26.429688 26.074219 26.253906 L 26.035156 26.117188 L 25.128906 26.117188 L 25.144531 26.207031 C 25.152344 26.261719 25.183594 26.386719 25.214844 26.484375 C 25.378906 27.046875 25.605469 27.421875 26.003906 27.789062 C 26.554688 28.300781 27.292969 28.558594 28.292969 28.585938 C 29.257812 28.613281 30.042969 28.425781 30.65625 28.023438 C 30.882812 27.875 31.25 27.515625 31.398438 27.292969 C 31.714844 26.824219 31.90625 26.296875 32.023438 25.558594 C 32.074219 25.253906 32.074219 25.230469 32.089844 21.253906 C 32.097656 19.050781 32.113281 17.15625 32.121094 17.039062 L 32.140625 16.828125 L 31.292969 16.828125 L 31.28125 17.0625 C 31.273438 17.191406 31.261719 17.460938 31.253906 17.660156 L 31.238281 18.023438 L 31.144531 17.839844 C 30.8125 17.203125 30.125 16.785156 29.222656 16.664062 C 28.910156 16.621094 28.523438 16.609375 28.273438 16.628906 Z M 29.195312 17.476562 C 29.738281 17.554688 30.167969 17.757812 30.492188 18.089844 C 30.960938 18.578125 31.179688 19.230469 31.246094 20.359375 C 31.273438 20.832031 31.25 21.496094 31.1875 21.90625 C 30.972656 23.375 30.269531 24.132812 29 24.277344 C 28.65625 24.316406 28.199219 24.292969 27.929688 24.226562 C 26.847656 23.945312 26.117188 22.960938 25.929688 21.539062 C 25.894531 21.273438 25.894531 20.542969 25.929688 20.253906 C 26.125 18.675781 26.847656 17.71875 28.035156 17.484375 C 28.296875 17.429688 28.867188 17.425781 29.195312 17.476562 Z M 29.195312 17.476562 "/>
<path style=" stroke:none;fill-rule:nonzero;fill:rgb(0%,0%,0%);fill-opacity:1;" d="M 45.347656 16.632812 C 44.246094 16.710938 43.449219 17.160156 43.027344 17.945312 C 42.882812 18.207031 42.789062 18.507812 42.726562 18.890625 L 42.71875 18.953125 L 43.59375 18.953125 L 43.667969 18.726562 C 43.761719 18.433594 43.84375 18.257812 43.964844 18.085938 C 44.222656 17.730469 44.648438 17.511719 45.230469 17.441406 C 45.539062 17.402344 46.21875 17.421875 46.464844 17.480469 C 47.0625 17.617188 47.433594 17.878906 47.65625 18.324219 C 47.8125 18.636719 47.84375 18.820312 47.859375 19.546875 L 47.875 20.152344 L 46.71875 20.164062 C 45.488281 20.175781 45.253906 20.191406 44.691406 20.300781 C 43.640625 20.507812 42.921875 20.96875 42.570312 21.65625 C 42.398438 22 42.324219 22.34375 42.324219 22.808594 C 42.324219 23.542969 42.574219 24.152344 43.0625 24.609375 C 43.40625 24.925781 43.800781 25.121094 44.359375 25.246094 C 44.566406 25.289062 44.640625 25.292969 45.144531 25.292969 C 45.636719 25.292969 45.726562 25.285156 45.933594 25.242188 C 46.792969 25.058594 47.398438 24.660156 47.777344 24.027344 L 47.859375 23.886719 L 47.882812 24.25 C 47.914062 24.625 47.9375 24.820312 47.980469 25.003906 L 48.003906 25.109375 L 48.859375 25.109375 L 48.832031 24.925781 C 48.753906 24.417969 48.75 24.179688 48.734375 21.449219 C 48.71875 19.015625 48.714844 18.679688 48.683594 18.535156 C 48.457031 17.523438 47.851562 16.941406 46.796875 16.722656 C 46.390625 16.632812 45.800781 16.597656 45.347656 16.632812 Z M 47.859375 21.476562 C 47.851562 21.792969 47.835938 22.132812 47.820312 22.226562 C 47.636719 23.558594 47.074219 24.226562 45.957031 24.457031 C 45.8125 24.484375 45.609375 24.5 45.320312 24.511719 C 44.949219 24.519531 44.875 24.515625 44.675781 24.476562 C 43.964844 24.332031 43.480469 23.898438 43.308594 23.257812 C 43.253906 23.050781 43.242188 22.601562 43.285156 22.371094 C 43.363281 21.976562 43.574219 21.644531 43.898438 21.417969 C 44.304688 21.132812 44.820312 20.984375 45.65625 20.917969 C 45.703125 20.914062 46.222656 20.910156 46.808594 20.90625 L 47.875 20.902344 Z M 47.859375 21.476562 "/>
<path style=" stroke:none;fill-rule:nonzero;fill:rgb(0%,0%,0%);fill-opacity:1;" d="M 22.179688 20.96875 L 22.179688 25.109375 L 23.066406 25.109375 L 23.066406 16.828125 L 22.179688 16.828125 Z M 22.179688 20.96875 "/>
<path style=" stroke:none;fill-rule:nonzero;fill:rgb(0%,0%,0%);fill-opacity:1;" d="M 34.644531 20.96875 L 34.644531 25.109375 L 35.535156 25.109375 L 35.535156 16.828125 L 34.644531 16.828125 Z M 34.644531 20.96875 "/>
</g>
</svg>
