<?xml version="1.0" encoding="UTF-8"?>
<svg xmlns="http://www.w3.org/2000/svg" xmlns:xlink="http://www.w3.org/1999/xlink" width="100px" height="100px" viewBox="0 0 100 100" version="1.1">
<g id="surface1">
<path style=" stroke:none;fill-rule:nonzero;fill:rgb(0%,0%,0%);fill-opacity:1;" d="M 47.066406 10.765625 C 45.464844 11.265625 43.167969 13.433594 42.300781 15.265625 C 41.199219 17.5 41.234375 20.601562 42.398438 22.832031 C 44.101562 26.066406 46.667969 27.632812 50.367188 27.667969 C 59.398438 27.699219 62.398438 15.464844 54.367188 11.265625 C 52.898438 10.5 52.199219 10.332031 50.367188 10.367188 C 49.167969 10.398438 47.667969 10.566406 47.066406 10.765625 Z M 47.066406 10.765625 "/>
<path style=" stroke:none;fill-rule:nonzero;fill:rgb(0%,0%,0%);fill-opacity:1;" d="M 16.234375 31.101562 C 13.832031 31.832031 12.765625 33.632812 13.667969 35.367188 C 14.199219 36.367188 15.566406 36.898438 19.464844 37.632812 C 21.464844 38 23.300781 38.5 23.566406 38.734375 C 24.367188 39.398438 23.167969 40 20.964844 40 C 19.332031 40 18.964844 39.867188 18.398438 39.167969 C 17.800781 38.398438 17.5 38.332031 15.332031 38.332031 L 12.933594 38.332031 L 13.167969 39.234375 C 13.699219 41.398438 15.167969 42.066406 19.667969 42.265625 C 24.367188 42.464844 26.765625 41.964844 28.265625 40.464844 C 29.199219 39.535156 29.367188 39.167969 29.167969 38.398438 C 28.699219 36.464844 27.601562 35.898438 22.832031 35.035156 C 19.101562 34.367188 18.234375 33.964844 18.933594 33.265625 C 19.566406 32.632812 23.035156 32.800781 23.5 33.464844 C 24.066406 34.234375 28.667969 34.265625 28.667969 33.5 C 28.667969 32.667969 27.199219 31.433594 25.800781 31.035156 C 24.101562 30.566406 17.832031 30.601562 16.234375 31.101562 Z M 16.234375 31.101562 "/>
<path style=" stroke:none;fill-rule:nonzero;fill:rgb(0%,0%,0%);fill-opacity:1;" d="M 31.667969 36.667969 L 31.667969 42.332031 L 45.667969 42.332031 L 45.667969 40 L 36.667969 40 L 36.667969 37.667969 L 44.667969 37.667969 L 44.667969 35.367188 L 40.765625 35.265625 L 36.832031 35.167969 L 36.734375 34.234375 L 36.632812 33.332031 L 45.332031 33.332031 L 45.332031 31 L 31.667969 31 Z M 31.667969 36.667969 "/>
<path style=" stroke:none;fill-rule:nonzero;fill:rgb(0%,0%,0%);fill-opacity:1;" d="M 48.332031 36.667969 L 48.332031 42.332031 L 53 42.332031 L 53 38.632812 C 53 36.601562 53.132812 35 53.300781 35.066406 C 53.464844 35.101562 54.964844 36.765625 56.667969 38.734375 L 59.765625 42.332031 L 66.667969 42.332031 L 66.667969 31 L 61.699219 31 L 61.601562 34.699219 L 61.5 38.398438 L 58.167969 34.699219 L 54.832031 31 L 48.332031 31 Z M 48.332031 36.667969 "/>
<path style=" stroke:none;fill-rule:nonzero;fill:rgb(0%,0%,0%);fill-opacity:1;" d="M 72.066406 35.734375 C 70.265625 38.367188 68.5 40.898438 68.167969 41.398438 L 67.601562 42.332031 L 70.101562 42.332031 C 72.566406 42.332031 72.632812 42.300781 73.234375 41.332031 L 73.800781 40.332031 L 81.832031 40.332031 L 82.398438 41.332031 C 82.964844 42.332031 83 42.332031 85.800781 42.332031 L 88.667969 42.332031 L 84.898438 36.667969 L 81.167969 31 L 75.367188 31 Z M 79.234375 35.734375 C 80.265625 37.5 80.265625 37.5 79.566406 37.734375 C 78.433594 38.066406 75.667969 38.035156 75.667969 37.699219 C 75.667969 37.265625 77.699219 34 77.964844 34 C 78.066406 34 78.632812 34.800781 79.234375 35.734375 Z M 79.234375 35.734375 "/>
<path style=" stroke:none;fill-rule:nonzero;fill:rgb(0%,0%,0%);fill-opacity:1;" d="M 9 48.867188 L 9 52.066406 L 20.964844 51.964844 C 30.566406 51.867188 33.035156 51.933594 33.464844 52.300781 C 34.699219 53.332031 34.167969 54.535156 26.867188 67.332031 L 19.734375 79.800781 L 21.898438 81.832031 C 23.101562 82.933594 24.199219 83.867188 24.300781 83.933594 C 24.5 84 27.535156 78.832031 40.601562 56.167969 C 43.234375 51.566406 45.699219 47.332031 46.066406 46.734375 L 46.734375 45.667969 L 9 45.667969 Z M 9 48.867188 "/>
<path style=" stroke:none;fill-rule:nonzero;fill:rgb(0%,0%,0%);fill-opacity:1;" d="M 54.667969 47.398438 C 55.199219 48.367188 60.132812 57 65.566406 66.566406 C 71.035156 76.167969 75.601562 83.964844 75.699219 83.898438 C 75.800781 83.867188 76.898438 82.898438 78.167969 81.765625 L 80.398438 79.699219 L 73.398438 67.601562 C 64.867188 52.832031 65.601562 54.234375 66 53.199219 C 66.566406 51.632812 66.964844 51.601562 79.300781 51.699219 L 90.832031 51.832031 L 90.933594 48.734375 L 91.035156 45.667969 L 53.667969 45.667969 Z M 54.667969 47.398438 "/>
<path style=" stroke:none;fill-rule:nonzero;fill:rgb(0%,0%,0%);fill-opacity:1;" d="M 39.734375 69.601562 C 34.199219 79.101562 29.667969 86.964844 29.667969 87.101562 C 29.667969 87.234375 30.832031 87.933594 32.265625 88.632812 L 34.898438 89.964844 L 41 79.601562 C 49.265625 65.632812 48.800781 66.332031 49.898438 66.332031 C 50.433594 66.332031 51 66.464844 51.199219 66.601562 C 51.433594 66.734375 54.632812 72 58.332031 78.332031 C 62.066406 84.667969 65.132812 89.867188 65.132812 89.898438 C 65.300781 90.132812 70.667969 87.101562 70.601562 86.800781 C 70.433594 86.234375 50.199219 52.332031 49.964844 52.332031 C 49.867188 52.332031 45.265625 60.101562 39.734375 69.601562 Z M 39.734375 69.601562 "/>
</g>
</svg>
